<?xml version="1.0" standalone="no"?>
<!DOCTYPE svg PUBLIC "-//W3C//DTD SVG 20010904//EN"
 "http://www.w3.org/TR/2001/REC-SVG-20010904/DTD/svg10.dtd">
<svg version="1.0" xmlns="http://www.w3.org/2000/svg"
 width="54" height="54" viewBox="0 0 300.000000 241.000000"
 preserveAspectRatio="xMidYMid meet">
<metadata>
Created by potrace 1.10, written by Peter Selinger 2001-2011
</metadata>
<g transform="translate(0.000000,241.000000) scale(0.100000,-0.100000)"
fill="#000000" stroke="none">
<path d="M1970 2096 c-27 -10 -36 -19 -38 -40 -2 -15 2 -33 8 -41 9 -11 17 -9
47 11 44 29 69 37 114 32 30 -3 34 -7 37 -36 5 -50 -54 -105 -131 -122 -41
-10 -57 -18 -55 -28 6 -29 34 -37 77 -22 37 12 43 11 61 -5 73 -66 -50 -168
-202 -169 -63 -1 -72 -12 -42 -54 19 -27 75 -30 151 -7 102 30 163 95 163 171
0 46 -25 84 -55 84 -22 0 -19 7 20 53 57 66 60 144 5 172 -35 18 -111 18 -160
1z"/>
<path d="M855 1872 c-50 -31 -168 -165 -242 -274 -191 -282 -448 -771 -489
-928 -20 -79 -9 -104 58 -135 29 -14 58 -25 64 -25 7 0 15 25 19 58 15 127
124 411 238 622 110 203 312 488 332 468 3 -3 -14 -91 -39 -195 -73 -306 -98
-488 -100 -733 l-1 -155 55 -28 c31 -15 79 -30 108 -34 l52 -6 0 34 c1 92 77
343 165 542 57 129 168 327 235 417 46 62 161 180 175 180 8 0 3 -26 -41 -205
-70 -287 -104 -534 -104 -761 0 -112 3 -133 18 -146 20 -18 89 -43 148 -52
l41 -7 6 213 c10 375 79 754 182 991 l34 78 -37 24 c-37 25 -169 75 -196 75
-22 0 -143 -135 -233 -261 -108 -151 -208 -317 -315 -524 -48 -93 -88 -162
-88 -153 -1 75 107 511 174 703 53 152 54 147 -58 193 -101 42 -125 46 -161
24z"/>
<path d="M1810 400 c0 -26 -4 -30 -27 -30 -36 0 -49 -9 -62 -43 -23 -61 31
-115 93 -91 13 5 16 24 16 100 0 56 -4 94 -10 94 -5 0 -10 -13 -10 -30z m0
-100 c0 -46 -2 -50 -23 -50 -30 0 -47 18 -47 50 0 32 17 50 47 50 21 0 23 -4
23 -50z"/>
<path d="M2620 336 c0 -53 4 -98 10 -101 6 -4 10 30 10 94 0 61 -4 101 -10
101 -6 0 -10 -38 -10 -94z"/>
<path d="M655 410 c-4 -6 7 -10 24 -10 l31 0 0 -79 c0 -108 18 -115 22 -9 3
82 3 83 31 86 15 2 27 8 27 13 0 12 -127 12 -135 -1z"/>
<path d="M1925 410 c-4 -6 7 -10 24 -10 l31 0 0 -79 c0 -44 5 -83 10 -86 6 -4
10 25 10 79 l0 86 31 0 c17 0 28 4 24 10 -3 6 -33 10 -65 10 -32 0 -62 -4 -65
-10z"/>
<path d="M815 350 c-39 -43 -10 -120 45 -120 36 0 60 29 60 72 0 62 -66 92
-105 48z m74 -14 c31 -37 -9 -103 -46 -80 -22 14 -30 74 -11 85 20 13 44 11
57 -5z"/>
<path d="M960 316 c0 -62 16 -86 59 -86 49 0 63 19 59 80 -4 71 -22 67 -26 -5
-3 -49 -5 -55 -25 -55 -35 0 -47 19 -47 72 0 26 -4 48 -10 48 -5 0 -10 -24
-10 -54z"/>
<path d="M1138 359 c-14 -8 -18 -23 -18 -64 0 -74 18 -80 22 -8 3 55 4 58 31
61 15 2 27 8 27 13 0 12 -40 11 -62 -2z"/>
<path d="M1236 355 c-21 -21 -10 -43 30 -60 20 -8 34 -21 34 -31 0 -14 -7 -16
-40 -11 -35 4 -39 3 -29 -9 24 -29 89 -14 89 21 0 25 -15 41 -45 47 -11 2 -21
12 -23 22 -4 17 1 18 32 13 36 -6 50 6 20 17 -26 10 -52 7 -68 -9z"/>
<path d="M1427 363 c-14 -13 -6 -18 30 -18 48 0 54 -28 8 -33 -37 -5 -55 -19
-55 -43 0 -33 72 -53 98 -27 18 18 15 94 -4 112 -15 16 -65 22 -77 9z m71 -85
c-3 -26 -43 -37 -62 -18 -8 8 -6 15 8 26 31 22 58 18 54 -8z"/>
<path d="M1578 359 c-14 -8 -18 -23 -18 -64 0 -74 18 -80 22 -8 3 52 5 58 26
61 37 5 52 -15 52 -70 0 -30 4 -47 10 -43 16 10 12 102 -6 119 -17 18 -60 20
-86 5z"/>
<path d="M2093 363 c-15 -6 -18 -123 -4 -123 6 0 11 24 13 53 3 48 5 52 31 55
15 2 27 8 27 13 0 9 -46 11 -67 2z"/>
<path d="M2197 363 c-14 -13 -6 -18 30 -18 50 0 53 -28 4 -35 -41 -6 -61 -32
-45 -57 13 -22 70 -29 90 -12 19 16 18 93 -2 113 -15 16 -65 22 -77 9z m68
-88 c0 -16 -7 -20 -30 -20 -34 0 -48 30 -18 38 32 8 48 2 48 -18z"/>
<path d="M2320 356 c0 -9 11 -41 25 -73 23 -50 27 -55 41 -42 22 22 55 117 44
124 -10 6 -24 -21 -36 -71 -10 -41 -22 -36 -39 16 -17 50 -35 74 -35 46z"/>
<path d="M2480 350 c-56 -56 8 -143 84 -114 29 11 16 21 -26 20 -32 -1 -43 3
-46 16 -2 13 7 18 42 23 35 6 46 12 46 25 0 47 -64 66 -100 30z m78 -21 c2
-12 -6 -18 -33 -21 -43 -5 -48 -1 -34 24 13 24 62 21 67 -3z"/>
<path d="M2695 354 c-22 -22 -15 -36 26 -55 46 -23 45 -44 -3 -43 -39 1 -50
-9 -22 -20 74 -28 118 38 48 71 -41 20 -42 37 -4 40 44 2 45 3 30 13 -23 15
-57 12 -75 -6z"/>
</g>
</svg>
